<?xml version="1.0" encoding="UTF-8"?>
<svg width="24" height="24" viewBox="0 0 24 24" fill="none" xmlns="http://www.w3.org/2000/svg">
  <path d="M21 12.79C20.65 12.86 20.31 12.9 19.96 12.9C15.51 12.9 12 9.39 12 4.94C12 4.6 12.04 4.25 12.11 3.91C6.95 4.65 3 9.08 3 14.5C3 20.3 7.7 25 13.5 25C18.92 25 23.35 21.05 24.09 15.89C23.75 15.96 23.4 16 23.04 16C21.4 16 20 14.6 20 12.96C20 12.6 20.04 12.25 20.11 11.91C21.08 13.04 22.21 13.99 23.5 14.6C22.72 13.57 21.79 12.68 20.73 12.01C20.49 12.59 20.3 13.2 20.17 13.84C20.05 14.44 20 15.05 20 15.68C20 16.31 20.07 16.94 20.2 17.56C20.33 18.18 20.53 18.79 20.79 19.38C21.06 19.98 21.39 20.55 21.78 21.09C22.02 20.55 22.2 20 22.31 19.44C22.44 18.84 22.5 18.23 22.5 17.61C22.5 16.99 22.44 16.37 22.31 15.78C22.19 15.17 22.02 14.58 21.8 14.02C21.58 13.46 21.34 12.94 21 12.79Z" fill="currentColor"/>
</svg>
